<?xml version="1.0" encoding="UTF-8"?><svg id="Layer_1" xmlns="http://www.w3.org/2000/svg" viewBox="0 0 33.58 32.68"><defs><style>.cls-1{fill:#a7712c;}.cls-2{fill:#d5d48b;}.cls-3{fill:#c6deb6;}.cls-4{fill:#853e37;}.cls-5{fill:#599bc2;}.cls-6{fill:#99592b;}.cls-7{fill:#7ec0cb;}.cls-8{fill:#addbc7;}.cls-9{fill:#77384c;}.cls-10{fill:#934e2c;}.cls-11{fill:#8dcacd;}.cls-12{fill:#9e652c;}.cls-13{fill:#c7ad55;}.cls-14{fill:#6a4271;}.cls-15{fill:#8c4731;}.cls-16{fill:#7c3845;}.cls-17{fill:#9bd2c9;}.cls-18{fill:#5290bc;}.cls-19{fill:#733a57;}.cls-20{fill:#cedda8;}.cls-21{fill:#5077af;}.cls-22{fill:#71b6ca;}.cls-23{fill:#bbdfc0;}.cls-24{fill:#62487d;}.cls-25{fill:#5168a1;}.cls-26{fill:#63a9c8;}.cls-27{fill:#6d3b62;}.cls-28{fill:none;stroke:#d1d3d4;stroke-miterlimit:10;}.cls-29{fill:#b58c39;}.cls-30{fill:#bf9c43;}.cls-31{fill:#575f96;}.cls-32{fill:#d3c779;}.cls-33{fill:#cfbb67;}.cls-34{fill:#813b3d;}.cls-35{fill:#ad7e31;}.cls-36{fill:#733959;}.cls-37{fill:#d1db9c;}</style></defs><path class="cls-3" d="M6.01,4.99C9.11,1.76,11.36.54,17.24.54c0,4.55,0,6.83,0,11.38-1.65,0-2.28.34-3.14,1.25-3.24-3.27-4.85-4.9-8.09-8.17Z"/><path class="cls-23" d="M5.9,5.1s.07-.07.12-.12c3.23,3.27,4.85,4.91,8.08,8.18-.01.01-.02.02-.03.03-3.27-3.24-4.9-4.85-8.17-8.09Z"/><path class="cls-8" d="M5.85,5.16s.04-.04.06-.06c3.26,3.24,4.9,4.86,8.16,8.1,0,0,0,.01-.02.02-3.28-3.22-4.92-4.83-8.2-8.05Z"/><path class="cls-17" d="M5.83,5.18s.02-.02.03-.03c3.28,3.22,4.92,4.83,8.2,8.06,0,0,0,0,0,0-3.29-3.21-4.93-4.82-8.22-8.04Z"/><path class="cls-11" d="M5.72,5.3c.05-.05.07-.08.12-.13,3.29,3.22,4.93,4.82,8.21,8.04-.01.01-.02.02-.03.04-3.32-3.18-4.98-4.77-8.3-7.95Z"/><path class="cls-7" d="M3.51,8.51c.71-1.39,1.16-2.05,2.21-3.21,3.32,3.18,4.97,4.77,8.29,7.96-.3.33-.42.51-.62.9-3.95-2.26-5.93-3.38-9.89-5.64Z"/><path class="cls-22" d="M3.44,8.65c.03-.06.05-.09.08-.15,3.95,2.26,5.93,3.39,9.88,5.65,0,.02-.01.03-.02.04-3.97-2.22-5.96-3.32-9.94-5.54Z"/><path class="cls-26" d="M3.41,8.72s.02-.05.04-.08c3.97,2.22,5.96,3.33,9.93,5.55,0,0,0,.01-.01.02-3.98-2.2-5.98-3.29-9.96-5.49Z"/><path class="cls-5" d="M3.34,8.86c.03-.06.04-.09.07-.15,3.98,2.2,5.97,3.3,9.96,5.5,0,.02-.01.03-.02.04-4-2.15-6.01-3.23-10.01-5.39Z"/><path class="cls-18" d="M2.84,10.02c.18-.48.29-.71.51-1.17,4,2.16,6,3.24,10.01,5.4-.06.13-.09.19-.14.33-4.15-1.82-6.22-2.73-10.37-4.55Z"/><path class="cls-21" d="M2.44,11.13c.14-.46.22-.68.39-1.13,4.15,1.82,6.22,2.74,10.37,4.56-.05.12-.07.19-.11.32-4.26-1.5-6.39-2.25-10.65-3.75Z"/><path class="cls-25" d="M2.38,11.32c.02-.08.04-.12.06-.2,4.26,1.5,6.39,2.25,10.65,3.76,0,.02-.01.03-.02.06-4.28-1.44-6.42-2.17-10.7-3.61Z"/><path class="cls-31" d="M2.33,11.52c.02-.08.04-.12.06-.21,4.28,1.45,6.42,2.17,10.69,3.62,0,.02-.01.03-.02.06-4.29-1.39-6.44-2.08-10.74-3.47Z"/><path class="cls-24" d="M2.03,19.94c-.69-3.33-.63-5.17.3-8.44,4.29,1.39,6.44,2.09,10.73,3.48-.26.92-.28,1.43-.08,2.36-4.38,1.04-6.57,1.56-10.95,2.59Z"/><path class="cls-14" d="M2.07,20.14c-.02-.08-.03-.12-.04-.21,4.38-1.03,6.57-1.55,10.95-2.59,0,.02,0,.03.01.06-4.37,1.09-6.55,1.64-10.92,2.73Z"/><path class="cls-27" d="M2.14,20.46c-.03-.13-.05-.2-.08-.33,4.37-1.09,6.55-1.64,10.92-2.73,0,.04.01.06.02.09-4.35,1.19-6.52,1.78-10.87,2.97Z"/><path class="cls-36" d="M2.19,20.66c-.02-.08-.03-.12-.05-.21,4.35-1.18,6.52-1.77,10.87-2.96,0,.02,0,.03.01.06-4.33,1.24-6.5,1.86-10.83,3.11Z"/><path class="cls-19" d="M2.7,22.32c-.24-.66-.34-.99-.51-1.67,4.33-1.24,6.5-1.86,10.83-3.1.05.19.08.28.14.47-4.19,1.72-6.28,2.58-10.47,4.3Z"/><path class="cls-9" d="M2.8,22.59c-.04-.11-.06-.17-.1-.28,4.19-1.72,6.28-2.58,10.47-4.3.01.03.02.05.03.08-4.16,1.8-6.24,2.7-10.39,4.5Z"/><path class="cls-16" d="M2.87,22.77c-.03-.08-.05-.12-.08-.2,4.16-1.8,6.24-2.69,10.4-4.49,0,.02.01.03.02.06-4.14,1.85-6.21,2.78-10.34,4.63Z"/><path class="cls-34" d="M3.27,23.7c-.17-.37-.25-.56-.41-.94,4.14-1.85,6.21-2.77,10.35-4.62.04.11.06.16.11.26-4.02,2.12-6.03,3.18-10.05,5.3Z"/><path class="cls-4" d="M3.9,24.9c-.27-.47-.4-.71-.63-1.21,4.02-2.12,6.03-3.17,10.06-5.29.06.14.1.21.18.34-3.84,2.46-5.76,3.7-9.6,6.16Z"/><path class="cls-15" d="M4.53,25.89c-.27-.39-.4-.59-.64-1,3.84-2.46,5.76-3.69,9.61-6.15.07.12.1.17.18.28-3.66,2.75-5.49,4.12-9.15,6.87Z"/><path class="cls-10" d="M17.24,32.15c-4.6,0-6.47-.73-9.37-2.83-1.59-1.16-2.26-1.87-3.34-3.44,3.66-2.75,5.49-4.12,9.15-6.87.3.44.49.64.94.96.81.59,1.34.79,2.63.79,0,4.55,0,6.83,0,11.38Z"/><path class="cls-2" d="M30.99,8.56c.05.09.07.14.11.23-3.99,2.18-5.99,3.26-9.99,5.44-.01-.03-.02-.04-.03-.06,3.96-2.24,5.94-3.36,9.9-5.6Z"/><path class="cls-37" d="M30.74,8.07c.11.19.16.29.26.49-3.96,2.24-5.94,3.36-9.9,5.6-.03-.06-.04-.08-.07-.14,3.89-2.38,5.83-3.57,9.72-5.95Z"/><path class="cls-20" d="M17.24.54c7.91,0,10.61,2.32,13.5,7.54-3.89,2.38-5.83,3.57-9.72,5.95-.81-1.46-1.56-2.11-3.78-2.11V.54Z"/><path class="cls-6" d="M32.79,15.48c0,.05,0,.08,0,.13-4.48.21-6.72.32-11.2.53,0-.01,0-.02,0-.04,4.48-.25,6.72-.37,11.2-.62Z"/><path class="cls-12" d="M32.78,15.35c0,.05,0,.08,0,.13-4.48.25-6.72.37-11.2.62,0-.01,0-.02,0-.04,4.48-.28,6.72-.43,11.19-.71Z"/><path class="cls-1" d="M32.78,15.22c0,.05,0,.08,0,.13-4.48.28-6.72.43-11.19.71,0-.01,0-.02,0-.04,4.47-.32,6.71-.48,11.19-.8Z"/><path class="cls-35" d="M32.64,13.9c.07.53.1.79.13,1.32-4.47.32-6.71.48-11.19.8,0-.15-.02-.22-.04-.37,4.44-.7,6.66-1.05,11.09-1.75Z"/><path class="cls-29" d="M32.49,12.97c.07.37.1.56.15.93-4.44.7-6.66,1.05-11.09,1.75-.01-.1-.02-.16-.04-.26,4.39-.97,6.59-1.45,10.98-2.42Z"/><path class="cls-30" d="M31.81,10.46c.35.98.48,1.49.68,2.51-4.39.97-6.59,1.45-10.98,2.42-.06-.29-.09-.43-.19-.7,4.2-1.69,6.3-2.54,10.49-4.23Z"/><path class="cls-13" d="M31.75,10.3c.02.06.03.1.06.16-4.2,1.69-6.3,2.54-10.49,4.23,0-.02,0-.03-.02-.04,4.18-1.74,6.27-2.61,10.45-4.35Z"/><path class="cls-33" d="M31.69,10.15c.02.06.04.1.06.16-4.18,1.74-6.27,2.61-10.45,4.34,0-.02,0-.03-.02-.04,4.16-1.78,6.25-2.68,10.41-4.46Z"/><path class="cls-32" d="M31.11,8.78c.26.53.38.81.59,1.36-4.16,1.78-6.25,2.68-10.41,4.46-.06-.16-.09-.23-.16-.38,3.99-2.18,5.99-3.26,9.98-5.44Z"/><path class="cls-10" d="M32.8,15.61c.26,6.31-1,9.99-6.26,13.76-2.89,2.07-4.75,2.78-9.3,2.78,0-4.55,0-6.83,0-11.38,1.28,0,1.8-.2,2.61-.78,1.48-1.06,1.83-2.09,1.75-3.86,4.48-.21,6.72-.32,11.2-.53Z"/><circle class="cls-28" cx="17.24" cy="16.34" r="4.5"/><circle class="cls-28" cx="17.24" cy="16.34" r="15.84"/></svg>