<?xml version="1.0" encoding="UTF-8"?>
<svg id="Layer_1" xmlns="http://www.w3.org/2000/svg" version="1.1" viewBox="0 0 595.3 841.9">
  <!-- Generator: Adobe Illustrator 29.0.0, SVG Export Plug-In . SVG Version: 2.1.0 Build 186)  -->
  <defs>
    <style>
      .st0 {
        fill: #fff;
      }
    </style>
  </defs>
  <path class="st0" d="M-265.2,90.7v8.7c0,5.8-8,21.6-11.9,26.3-12.7,15.5-37.8,24.1-55.7,33-17.4,8.7-54.8,26.9-62.4,45.2-1.7,4.2-2.7,10,1.1,13.5,1.3.6,3.5-3.5,4.5-4.5s4.6-4.7,5.7-5.2,1,.1.7.7c-.4.9-4.2,5.6-5.2,6.7s-2.2,2.1-3.2,3.2c4.4,1.5,9.9-.7,14.4-2s8.6-2.8,12.6-4.2,17.4-7.6,19.9-7.8,2.5.8,3.9.9c11.5.9,26-6.2,37.2-8.9.8.2.7,2.2,2.4,3,7.1,3.4,19.5-3.3,26.6-5.1,1,1.1-4.2,4.4.8,7.4s8.5.5,12.5,0c.6,7.2,9.1,7.7,14.6,6.4l.7.7c-2.6,9,7.2,9.2,13.5,8.7-4.4,11.2,7.1,11.2,14.9,9.9.4.4-5.3,7.2,3.4,8.3s12.5-8.9,14.2-16.2c3.8-15.9,1-28.6-9.7-40.9s-5.2-4.5-6.4-6.5,2.4-.1,3.1.3c12.5,7.8,19.4,25,17.7,39.3-3.8,31.8-35.1,63.1-60.1,80.6-46.1,32.3-100.6,53.1-153.2,72.3-8.5,8.2-15.9,17.3-23.6,26.2,22.3-9.5,43.6-21.4,65.4-32l2.5-.2-13.4,9.7c1.7.6,3.7-.1,5.5-.5,13.4-2.7,27.1-8.3,39.4-14.1.8.5-.1,1.1-.5,1.5-1.8,1.7-4.6,2.5-6.2,4.5,6-.8,15.7-1.9,20.1-6.4s2.8-5.6,3.5-6c1.1-.5.8,2.2.8,2.7-.3,5.5-3.1,11.5,1.5,16.3,7.7,8,19.4-4.8,24.5-10.6s7.2-9.9,8.4-10.4-.1,2.7-.3,3.2c-.7,1.5-2.6,3.2-2.9,4s.1.9.7.7c17.7-9.7,34.9-22.5,45.9-39.6,1.8.5-.3,3.6-.9,4.8-1.2,2.4-3.3,5.3-5.1,7.3s-3.6,3.3-3.9,4,.1.9.7.7c12.5-10.2,24.5-21.3,33.9-34.5s6.1-11.3,8.8-14.5.4-.6.7-.5c.5.7-3.4,7.7-4.1,9.1s-1,1.6.1,1.1c16.7-21.2,32.8-48.4,35.7-75.8,2.7-25.6-12.3-59.4-3.8-81.6s11.9-15.4,20.2-22.4c-3.3-1.1-6.8,1.5-9.9-.5,7-4.1,16.7-3.4,24.5-2.7,23.4,2,46.4,8.8,68.6,15.8-.6-1.1-2.1-1.6-3.1-2.1-20.6-10-60.7-20.4-83.4-20.3s-10,1.6-10.6,1c.9-2.9,6.3-3.7,9.2-4,15.9-1.2,49.6,8.7,65.5,13.7,9.9,3.1,19.6,6.9,29.4,10.5-3.6-2.9-8-5.6-12.1-8-23-13.5-48.8-23.1-73.7-32.4-4.3-25.1-26.9-43.4-47.6-55.8-1.3,5.8-7.9,7.4-13.1,6.9s-10.7-2.9-7.6-10,3.7-5,3.3-5.3l-17.1-4.5c-1.5,6.8-4.6,11.1-12,11.2s-13-6.4-10.1-15.2l-15.4-2c.5,2.7-1.8,7.7-3.7,9.4s-2.9.9-2.7,2.5c27.5,9.4,57.5,8.6,81.7,26.6.6.5,4.2,2.9,3.5,3.7-10.2-5.9-21-11.6-32.4-14.9s-31.4-5.9-46.5-10.5-8.8-4.4-13.3-6-9-2.3-9.4-2c-1.6,4-3,9.3-7.9,10.2,2.4,3.2,7.1,3.6,10.8,4.3,22.9,4.5,47,5,69,13.3l-17.3-3.1c-19.4-3.5-39.1-6-58.6-8.6,1.8,7.7-5.5,10.6-11.9,7.9-.2,1,.5,1.2,1.1,1.6,11.1,7.5,28.9,6.5,41.7,8.3l22.5,1c-.3.9-2.4,1-3.2,1-12.1.8-30.6.3-42.6-1.6-4.2-.7-8.1-2.3-12.2-2.9l9.2,5.4c5,2,10.2,3.6,15.5,4.8s18.3,3,18.3,3.9c-.6.8-1.8.6-2.7.7-6.1.4-12.5-1-18.6-1.4l6.4,3.7,10.9,4c0,1.4-4.6,8.2-4.9,10.4s1.4-.4,2,.5l-2,11.1,2-.5.3.4Z"/>
  <path d="M-227.2,410.4c1.8,1.6,4.5,2.3,6.6,3.6,3.8,2.4,7,6.2,7.3,10.8-1.1,1.1-7.8-3.7-9.3-4.3-5-2-8.2-.2-13.2-.7-10.4-1-20.9-7.4-32.1-6.2-6.4.7-14,5.3-20.3,3.7s-2.3-1.9-3.5-2.5c-2.8-1.3-5.3-.8-8,.7s-6.2,5.8-6.8,5.4c-2.1-3.7-.2-6.9,2.2-9.9,5.5-6.9,9.8-4.7,17.4-5.4,5-.5,9.6-2.2,14.6-2.7l-43.6-34.2c-2.8-3-2.7-5.7-3.5-9.4s.4-.9-.7-.8c-3.4,1.5-6.9,2.5-10.6,3.3-6.1,1.4-13.4,1.4-18.9,2.9-1.3.3-2.8,1.8-4.4,1.8-.3.4.8,2.1,1.1,2.6,2.8,5,11.1,17.2,15.9,19.8,9.6,5.3,24.1.2,34.9,3.7s8.6,4,8,9.1c-.4.4-9-1.5-10.6-1.5-3.5,0-6.5,1.7-9.9,2-10.7.9-21.2-2.6-32.4-.2s-10.6,4-14.7,4.1-10-4.1-16-.2-4.2,5.1-5.7,4.7c-3.1-.9,3.4-10.9,5.2-12.1,3-1.9,18.2-6,22-6.3s2.6,0,3.7.5l-15.4-22.2c-3.9,1-8.7.4-12.4,1-3.2.5-12.4,5.2-15.9,6.9-14.5,6.7-28.7,14.5-43.2,21.2-20.2,25.6-37.9,53.2-59.9,77.3-8.9,9.7-19.5,20.8-31.6,26.3-5.7,2.6-18.5,7.6-17.7-3.1-1.9.7-3.6,2-5.5,2.7-6.7,2.7-20.2,5.4-19.3-5.7-21.1,2.5-1.3-21,4-27.5,8.9-11,19.1-21.8,28.5-32.5,14.2-16,29.3-31.3,42.4-48.3-6.7-1.8-10.5-2.7-9.3-10.8s16-22.6,22.9-30.6c8.4-9.6,9-18.9,14.3-29.8,12.7-26.3,30.7-53.7,46.7-78.2,9.2-14,19.3-29.6,30-42.4,23.9-28.9,62.7-40.1,94.7-57.5,19.7-10.7,30.2-24.1,32.7-47.1l-1,1.2-1.5-1.2,2.4-11.7-1.7,1.5c-1,.2-.8-.5-.7-1.2.2-1.9,4.4-10.7,4-11.2-8.9.3-13.9-6.2-20.5-10s-19.8-9.2-25.9-17.7-.6-2.1-1.2-2.8-3.3-1.7-4.4-2.5c-3.3-2.5-5.3-5.5-4.4-9.8.4-1.3,3.9-.9,5.1-.8,4.1.4,8.4,2.4,12.7,2.4-4.5-4.2-11.1-10.2-11.8-16.7s0-1.7.5-2.5l3.5-.6,24.6,5.9c-3.2-3-4.9-9.4-2-13s11.3.3,13.9.9c22.6,5.2,46.3,6.9,67.9,15.9s51.3,33.4,59.5,61.9c11.6,3.9,22.9,8.6,34.2,13.4,20.2,8.6,46.6,19.9,62.2,35.4,1.8,1.8,2.6,2.9,1.5,5.5l-1.4.4c-16.5-7.5-34.7-13.6-52.4-18-8.4-2.1-17-4-25.6-5.1s-16.4-2.1-19.5-1.3-12.9,8.8-15.1,11.2c-19.1,20.3-5.2,52.4-3.7,76.6,3.8,61.8-57.1,127.6-108.2,154.9-3.3,1.8-8,3.1-10.7,4.7s-5,5.9-8,7.4c-.2.6,3.3,3.8,4,4.5,7.9,7.2,26.5,23.8,35.7,27.2,15.7,5.9,44.9-5.7,56.4,11.5.8,1.3,2.4,4,.8,5.1-4.9-2.9-10.4-5.1-16.2-3.8s-2.3,1.2-4.1,1.4c-3.1.3-6.2-.4-9.2-1h-.4ZM-264.9,90.7v8.7c0,5.8-8,21.6-11.9,26.3-12.7,15.5-37.8,24.1-55.7,33-17.4,8.7-54.8,26.9-62.4,45.2-1.7,4.2-2.7,10,1.1,13.5,1.3.6,3.5-3.5,4.5-4.5s4.6-4.7,5.7-5.2,1,.1.7.7c-.4.9-4.2,5.6-5.2,6.7s-2.2,2.1-3.2,3.2c4.4,1.5,9.9-.7,14.4-2s8.6-2.8,12.6-4.2,17.4-7.6,19.9-7.8,2.5.8,3.9.9c11.5.9,26-6.2,37.2-8.9.8.2.7,2.2,2.4,3,7.1,3.4,19.5-3.3,26.6-5.1,1,1.1-4.2,4.4.8,7.4s8.5.5,12.5,0c.6,7.2,9.1,7.7,14.6,6.4l.7.7c-2.6,9,7.2,9.2,13.5,8.7-4.4,11.2,7.1,11.2,14.9,9.9.4.4-5.3,7.2,3.4,8.3s12.5-8.9,14.2-16.2c3.8-15.9,1-28.6-9.7-40.9s-5.2-4.5-6.4-6.5,2.4-.1,3.1.3c12.5,7.8,19.4,25,17.7,39.3-3.8,31.8-35.1,63.1-60.1,80.6-46.1,32.3-100.6,53.1-153.2,72.3-8.5,8.2-15.9,17.3-23.6,26.2,22.3-9.5,43.6-21.4,65.4-32l2.5-.2-13.4,9.7c1.7.6,3.7-.1,5.5-.5,13.4-2.7,27.1-8.3,39.4-14.1.8.5-.1,1.1-.5,1.5-1.8,1.7-4.6,2.5-6.2,4.5,6-.8,15.7-1.9,20.1-6.4s2.8-5.6,3.5-6c1.1-.5.8,2.2.8,2.7-.3,5.5-3.1,11.5,1.5,16.3,7.7,8,19.4-4.8,24.5-10.6s7.2-9.9,8.4-10.4-.1,2.7-.3,3.2c-.7,1.5-2.6,3.2-2.9,4s.1.9.7.7c17.7-9.7,34.9-22.5,45.9-39.6,1.8.5-.3,3.6-.9,4.8-1.2,2.4-3.3,5.3-5.1,7.3s-3.6,3.3-3.9,4,.1.9.7.7c12.5-10.2,24.5-21.3,33.9-34.5s6.1-11.3,8.8-14.5.4-.6.7-.5c.5.7-3.4,7.7-4.1,9.1s-1,1.6.1,1.1c16.7-21.2,32.8-48.4,35.7-75.8,2.7-25.6-12.3-59.4-3.8-81.6s11.9-15.4,20.2-22.4c-3.3-1.1-6.8,1.5-9.9-.5,7-4.1,16.7-3.4,24.5-2.7,23.4,2,46.4,8.8,68.6,15.8-.6-1.1-2.1-1.6-3.1-2.1-20.6-10-60.7-20.4-83.4-20.3s-10,1.6-10.6,1c.9-2.9,6.3-3.7,9.2-4,15.9-1.2,49.6,8.7,65.5,13.7,9.9,3.1,19.6,6.9,29.4,10.5-3.6-2.9-8-5.6-12.1-8-23-13.5-48.8-23.1-73.7-32.4-4.3-25.1-26.9-43.4-47.6-55.8-1.3,5.8-7.9,7.4-13.1,6.9s-10.7-2.9-7.6-10,3.7-5,3.3-5.3l-17.1-4.5c-1.5,6.8-4.6,11.1-12,11.2s-13-6.4-10.1-15.2l-15.4-2c.5,2.7-1.8,7.7-3.7,9.4s-2.9.9-2.7,2.5c27.5,9.4,57.5,8.6,81.7,26.6.6.5,4.2,2.9,3.5,3.7-10.2-5.9-21-11.6-32.4-14.9s-31.4-5.9-46.5-10.5-8.8-4.4-13.3-6-9-2.3-9.4-2c-1.6,4-3,9.3-7.9,10.2,2.4,3.2,7.1,3.6,10.8,4.3,22.9,4.5,47,5,69,13.3l-17.3-3.1c-19.4-3.5-39.1-6-58.6-8.6,1.8,7.7-5.5,10.6-11.9,7.9-.2,1,.5,1.2,1.1,1.6,11.1,7.5,28.9,6.5,41.7,8.3l22.5,1c-.3.9-2.4,1-3.2,1-12.1.8-30.6.3-42.6-1.6-4.2-.7-8.1-2.3-12.2-2.9l9.2,5.4c5,2,10.2,3.6,15.5,4.8s18.3,3,18.3,3.9c-.6.8-1.8.6-2.7.7-6.1.4-12.5-1-18.6-1.4l6.4,3.7,10.9,4c0,1.4-4.6,8.2-4.9,10.4s1.4-.4,2,.5l-2,11.1,2-.5.3.4ZM-272.8,217.6h-12.6c-3,0-6.6-3.3-8.9-5-7.1.4-17.3,4.3-24,1.7-1.2-.5-3-2.1-3.6-2.1-2.1,0-7.9,1.5-10.3,2.1-25.5,6.2-49.1,18.2-74.3,24.8l-4.7,6.2-9.2,15.8c29.5-14.6,60.8-25.5,91.9-36.2,1,1.3,0,2.2,1,3.9,3,5.3,13,2.9,17.8,1.5l.5,1c-5,10,9.5,11.3,16.1,8.4.8.8-4.2,6.1-.5,10.7s12.5,3.7,17.9,2.2c-3.9,3.7-6.5,8.9-.5,12.2s8.6.9,12.9-.8c.2,3.8-4.5,6.4-1.4,10.1,3.2,3.8,10.8,1,14.8-.2.6.5-7.8,8.9.2,8.8,6.2,0,18.6-15.3,23.6-19.5l3.9-5.2c-3.6,2.2-10.3,4-8.8-2.6s3.8-4.9,3.4-5.3c-4.4,1.5-12.7,3.5-16.3-.3s1.4-7.8.5-8.6c-8.5,1.6-21.4.5-14.9-11.2-1-1.3-2.7-.5-4.1-.8-4.5-.8-12.4-3.8-11.2-9.6s1.1-1.3,1-2.2l-.2.2ZM-410.6,238.9c-4.9,0-3.9-6.1-3-9.4-4.9,6.6-10.6,14.3-12.5,22.5s-1.6,7.2.3,10.2l1.3-.3,13.8-23h0ZM-323.9,245.8c-12.3,4.8-24.4,10.1-36.9,14.4s-23.7,6.8-35.1,11-21.1,10.6-31,13.1-7.9,1.5-7.8-5.3c-3.9,3.9-14.5,16.7-11.4,22.3s13,.3,16.9-.8c15.9-4.5,31.5-10.9,46.4-18,9.7-4.6,18.8-10.3,28.6-14.8-1.4,2-3.9,3.3-6,4.7-3.1,2-11.5,5.6-13.4,7.4-3.4,3.4,1.5,9.4,5,10.5,9.8,2.9,24.6-10.6,33.2-14.1.1,1-.8,1.6-1.5,2.2-6,5.9-15.2,9.6-22.7,13.2-2,3.8,1.5,8.8,5,10.4,10.2,4.6,24.2-7.7,33.5-11-4,3.7-8.8,7-13.7,9.3s-10.2,3.1-11,5.9c-1.9,6.4,5.8,10.2,11,10.1,7.8-.1,18.6-8.8,26.5-10.4-3.6,3.2-8.2,5.5-12.6,7.5s-9.9,3.6-10.3,4.2c-1.3,2,1.6,5.5,3.3,6.5s7.3,1.5,9.9.7c5.8-1.7,19.4-9.6,25.2-12.9s10.6-6.4,15.5-10c-5.3,1.5-13.7,5.4-18.4.8-7.5-7.4,9.3-16.4,13.9-20.4s1.2-.8,1-1.7c-8.2,2.9-18.9,14.9-28.2,12.1s-2.4-1.4-2.9-2.5c-4-8.6,10.9-16.5,16.1-20.8s1.4-.6,1.1-1.6c-8.3,3.5-17.1,12.4-26.8,10.2s-5.6-3.6-5.4-6.4c.5-6.6,15.8-11.8,19.3-17.2-7.3,3-22.9,15-30.7,10.6s-3.1-5.1-1-7.9c3.8-5.1,10.1-7.2,14.9-11.1l.5-.2ZM-462.1,312.2l16-22.9.4-10.3c-2,2.5-3.9,5.2-5.7,8-4.7,7.4-10.5,16.3-10.7,25.2h0ZM-372.5,298.9l-20.8,11.7c-11.8,5.9-23.5,11.8-35.7,16.8-6.9,2.8-23.1,10.1-30,7.7s-4.1-8.2-3.4-12.4c-3.7,4.9-11.5,21.9-7.9,27.2s13.7-1.3,17.2-2.6c17.4-6.4,34.4-15.4,50.8-24.1h.7c4.1,10,13.6,6.1,20.8,2.2,8-4.3,15.6-10.1,23.3-14.9l-16.8,6.5c-3.2.7-8,.5-9.2-3.2-1.9-5.9,8.2-10.9,11.2-14.9h-.2ZM-343.2,322.2c-9,2.4-26.6,17.4-29.5.5l-14.3,7.9c-1.6,2.6.7,7.8,3.2,9.2,6.9,3.9,19.6-5.4,26.1-8.1l14.5-9.5ZM-398.7,337l-.2-1c-18,6.8-35,15.8-52.8,23-6,2.5-17,7.5-23.1,8.1-14,1.5-9.2-13-4.2-20-1.3-.6-3,2.4-3.9,3.6-3.1,4.2-7,11.6-2.5,16.2s20.5-1,26.8-3.3c20.5-7.5,40.4-16.7,59.8-26.6h0ZM-385.3,345.5c-31.1,10.5-60.5,25.4-91.8,35.3-6.5,2.1-13.2,3.6-19.8,5.5s-1.5.1-1.4.8c3.5.8,7.5-.7,11-1.6,10-2.6,20.6-6.3,30.4-9.8,23.4-8.3,46.4-18.3,69-28.7.8-.3,2.4-.8,2.6-1.6h0ZM-306,371.7c-.5.7,4.7,4.4,5.6,4.3,2.1-.2,4.7-3.8,6.3-5.1l-3.2-2.7-8.7,3.5h0ZM-355.3,374c1.4-1.7,0-3.8-1.7-4.7l-6.6,1.9c-.3.4,2.6,4.7,3.3,4.9s4.3-1.3,5-2.1h0ZM-292.8,372.3l-6.3,4.7c-.2.8,4.4,4.7,5.2,4.7,1.6,0,5.4-4.1,6.1-5.7-.9-1.1-3.7-3.8-5-3.6h0ZM-353.8,374.3c-.6.2-5.1,3.1-5.3,3.7.3,1,1.3,3.8,2.2,4.1,2,.7,5.9-.8,6.4-2.9s-1.9-5.3-3.4-4.9h0ZM-286.4,377.8l-6.3,4.6c3.7,6.5,7.4,4.1,11.4-.5-1.2-1-3.5-4.3-5.1-4.1ZM-355.6,383.6l4.2,5.3,5.2-4.2c.1-.6-2.1-3.6-3.2-3.6l-6.2,2.5h0ZM-286.7,387.6c4,5.4,8,4.3,10.4-1.7-4.8-5.6-5.6.4-10.4,1.7ZM-344.9,386.7c-9.4,4-2.5,8.2,3.1,2.6l-3.1-2.6ZM-275,387.6l-4.8,4.7c2.8,5.5,7.2,3.8,9.8-.7,0-.7-4.2-4.3-5-4.1h0ZM-335.9,392.6c-4.5-3.2-8.4.5-13.3.6l-.2,6.2,5-1,7.3-.5c.9-.5,1.8-4.6,1.3-5.4h0ZM-335.8,398.5h7.4l.5-4.4c-1.7,0-5.9-1.8-6.8-.2s-1.4,4.3-1.1,4.6ZM-268.1,393.2l-5.7,4c3.9,5,5.8,3.3,8.3-1.6l-2.7-2.5h.1ZM-312.5,393.5l-6.9.5v5.5c2,0,4.1.2,6-.7l1-5.2h-.1ZM-312,398.5c5.9.4,7.2-5.6.5-4.9l-.5,4.9ZM-320.4,399.5l-.5-5.2-5.9.3-.6,4.4,6.9.5h.1ZM-351.1,394.5l-4.4.5v6.4l5.2-1.5-.8-5.5h0ZM-298.1,398.5c.5-2.3-6.6-4.3-6.9-4v3.5c2.3.2,4.8-.5,6.9.5ZM-361.5,402.4c4.7.5,6.7-3,5-7.2l-5.4,1.3.4,5.9h0ZM-362.5,397c-4-.7-6.7,1.3-4.8,5.3l4.8.6v-6h0ZM-259,398.6c0-.2-3-1.4-3.3-1.5-2.3-.5-4.1,3.1-5.5,4.7s-1.8,2.4-2,2.4c-.8.5-2.1.4-2.9.8l.4,6.4c5.5-.9,11.4-.8,16.9.3.3-.2,1.9-3.5,2.2-4.2s0-1.8.3-2.4,2.8-1.5,2.4-3.6c-3-.4-6-2.9-8.4,0-.1-.8.3-2.3,0-2.9h-.1ZM-370.5,398.5c-4.1.3-8.7,2.8-9.9,6.9,2.9-2.6,5.8-4.5,9.9-4v-3h0ZM-220.8,408.4c-.8-1.6-.1-6.3-1.5-7.2s-5.1.8-7,.3v6.4l8.4.5h.1ZM-220.3,408.4c1.5-.3,6.8-.5,7-2.2.2-2.9-4.4-5.1-7-5.2v7.4h0ZM-230.3,402.1c-1-1.2-4.4-.5-5.8,0l.2,4.9,6.2,1c.3-.3,0-5.2-.6-5.8h0ZM-244.1,405.9v-3.2c-2.9-2.3-5.2-.4-6.4,2.4l6.4.7h0ZM-237.2,406.9l-.5-4.7-5.5-.2-.3,4c1.9,1.2,4.1,1,6.2,1h0ZM-202.5,408.4c-.3-2-8.4-5-8.9-4.5l.8,3,8.1,1.5ZM-274.4,406l-6.9.9c-.4.4,1.4,5.9,2,6.2,1.4.9,4.2-1.5,5.9-1.3l-1-5.9h0ZM-246.1,408.4l-6-1.3-2,5.2,7.9,2v-5.9h.1ZM-280.8,414.3l-1.5-6.9-6.9,1c-1,7.6,2.7,6.3,8.4,5.9ZM-292.2,408.4c-2.2-.2-4.4.3-6.3,1.4s-5.2,3.9-4.6,4.6c3.6-2.6,7-3.4,11.4-3l-.5-3ZM-239.1,415.8c0-2,.4-4.2-.7-6l-5.2-1v5.9l5.9,1h0ZM-528.1,471.3c16.4-18.9,30.6-39.7,45.5-59.8l1.1-2.1s-46.6,61.9-46.6,61.9ZM-229.7,416.8c.6-6-3.5-6.5-8.4-6.9v6.4c2.9,1,5.5,1.3,8.4.5ZM-217.8,420.3c.2-.9-.5-1.2-1-1.7-.8-.8-7.8-5.9-8.4-5.2-1.1,5.7,6.5,3.6,9.4,6.9h0ZM-556.3,477.3c14.2-16.4,28.9-33.4,41-51.4.5-.7,1.2-1.2,1.1-2.1-11.2,14.3-23,28.1-34.2,42.4-2.2,2.8-4.9,6.1-6.9,9s-1.2,1.2-1.1,2.1h0ZM-480,434.7l-46.1,61.9c.4.4,4.1-2.5,4.7-3,9.3-7.5,16.9-18.8,23.3-28.8s12-20.2,18.1-30.2h0Z"/>
  <path class="st0" d="M-323.9,245.8c-4.7,4-11.1,6-14.9,11.1s-2.2,6.1,1,7.9c7.8,4.4,23.4-7.6,30.7-10.6-3.5,5.4-18.8,10.5-19.3,17.2s2.8,5.8,5.4,6.4c9.7,2.3,18.5-6.7,26.8-10.2.2,1-.6,1.1-1.1,1.6-5.2,4.4-20.1,12.3-16.1,20.8s1.8,2.2,2.9,2.5c9.3,2.8,19.9-9.2,28.2-12.1.2.9-.5,1.2-1,1.7-4.6,4-21.4,13-13.9,20.4s13,.8,18.4-.8c-4.9,3.6-10.2,7-15.5,10s-19.5,11.2-25.2,12.9-7.6.7-9.9-.7-4.7-4.5-3.3-6.5,8.7-3.5,10.3-4.2c4.4-2,9-4.3,12.6-7.5-7.9,1.7-18.7,10.3-26.5,10.4s-12.9-3.7-11-10.1,8.4-4.6,11-5.9c4.9-2.3,9.7-5.6,13.7-9.3-9.3,3.3-23.3,15.6-33.5,11s-7-6.6-5-10.4c7.5-3.7,16.7-7.4,22.7-13.2s1.6-1.2,1.5-2.2c-8.6,3.5-23.4,17-33.2,14.1-3.4-1-8.4-7.1-5-10.5,1.8-1.8,10.3-5.5,13.4-7.4s4.6-2.7,6-4.7c-9.7,4.5-18.9,10.2-28.6,14.8-14.9,7.1-30.5,13.5-46.4,18s-14.5,5.3-16.9.8,7.4-18.3,11.4-22.3c0,6.8,1.9,6.8,7.8,5.3,9.9-2.5,21.1-9.4,31-13.1s23.5-7,35.1-11c11.6-4,24.6-9.6,36.9-14.4l-.5.2Z"/>
  <path class="st0" d="M-272.8,217.6c.1,1-.8,1.3-1,2.2-1.2,5.8,6.7,8.8,11.2,9.6s3.2-.5,4.1.8c-6.6,11.6,6.4,12.8,14.9,11.2.9.9-4.3,4.6-.5,8.6s11.9,1.8,16.3.3c.4.4-3.1,4.1-3.4,5.3-1.5,6.6,5.2,4.8,8.8,2.6l-3.9,5.2c-5,4.1-17.3,19.4-23.6,19.5-8,0,.4-8.3-.2-8.8-4,1.2-11.6,4-14.8.2-3.1-3.7,1.6-6.3,1.4-10.1-4.4,1.6-8.5,3.2-12.9.8s-3.4-8.4.5-12.2c-5.4,1.5-13.9,2.7-17.9-2.2s1.3-9.9.5-10.7c-6.6,2.9-21.1,1.6-16.1-8.4l-.5-1c-4.8,1.4-14.8,3.7-17.8-1.5s0-2.7-1-3.9c-31.1,10.7-62.4,21.6-91.9,36.2l9.2-15.8,4.7-6.2c25.3-6.6,48.9-18.6,74.3-24.8s8.2-2.2,10.3-2.1,2.4,1.6,3.6,2.1c6.7,2.6,16.9-1.4,24-1.7,2.3,1.7,5.9,5,8.9,5h12.6l.2-.2Z"/>
  <path class="st0" d="M-372.5,298.9c-3,4-13.1,9-11.2,14.9s6,4,9.2,3.2l16.8-6.5c-7.7,4.8-15.3,10.6-23.3,14.9-7.3,3.9-16.7,7.9-20.8-2.2h-.7c-16.3,8.7-33.4,17.8-50.8,24.2-3.5,1.3-14.7,6.2-17.2,2.6-3.6-5.3,4.2-22.4,7.9-27.2-.7,4.2-1.7,10.6,3.4,12.4s23-4.9,30-7.7c12.2-5,23.9-10.9,35.7-16.8l20.8-11.7h.2Z"/>
  <path class="st0" d="M-343.2,322.2l-14.5,9.5c-6.4,2.7-19.2,11.9-26.1,8.1s-4.8-6.6-3.2-9.2l14.3-7.9c2.9,16.9,20.4,1.9,29.5-.5Z"/>
  <path class="st0" d="M-398.7,337c-19.4,10-39.3,19.2-59.8,26.6-6.4,2.3-21.4,8.9-26.8,3.3s-.5-12,2.5-16.2,2.5-4.1,3.9-3.6c-5.1,7-9.9,21.6,4.2,20,6.1-.7,17.1-5.7,23.1-8.1,17.8-7.2,34.8-16.2,52.8-23l.2,1h0Z"/>
  <path class="st0" d="M-480,434.7c-6.1,10-11.8,20.3-18.1,30.2s-14,21.3-23.3,28.8-4.3,3.4-4.7,3l46.1-61.9h0Z"/>
  <path class="st0" d="M-259,398.6c.4.6,0,2.1,0,2.9,2.4-2.9,5.4-.4,8.4,0,.4,2.1-2.1,3.1-2.4,3.6s0,1.6-.3,2.4-1.9,4-2.2,4.2c-5.4-1-11.4-1.2-16.9-.3l-.4-6.4c.8-.5,2.2-.3,2.9-.8s1.3-1.7,2-2.4c1.4-1.5,3.2-5.1,5.5-4.7s3.2,1.3,3.3,1.5h.1Z"/>
  <path class="st0" d="M-385.3,345.5c-.3.7-1.9,1.2-2.6,1.6-22.6,10.3-45.5,20.3-69,28.7-9.8,3.5-20.4,7.2-30.4,9.8-3.5.9-7.5,2.4-11,1.6,0-.7.9-.7,1.4-.8,6.6-1.9,13.3-3.4,19.8-5.5,31.3-9.9,60.7-24.8,91.8-35.3h0Z"/>
  <path class="st0" d="M-410.6,238.9l-13.8,23-1.3.3c-2-3-1.1-6.9-.3-10.2,1.9-8.2,7.5-15.8,12.5-22.5-.9,3.3-2,9.5,3,9.4h0Z"/>
  <path class="st0" d="M-462.1,312.2c.2-8.9,6-17.8,10.7-25.2s3.6-5.5,5.7-8l-.4,10.3-16,22.9h0Z"/>
  <path class="st0" d="M-335.9,392.6c.5.8-.4,4.9-1.3,5.4l-7.3.5-5,1,.2-6.2c4.9-.2,8.8-3.9,13.3-.6h0Z"/>
  <path class="st0" d="M-556.3,477.3c0-.9.6-1.4,1.1-2.1,2-2.9,4.6-6.2,6.9-9,11.1-14.3,23-28.1,34.2-42.4,0,.9-.6,1.4-1.1,2.1-12.2,18-26.8,35-41,51.4h-.1Z"/>
  <path class="st0" d="M-528.1,471.3l46.6-61.9-1.1,2.1c-14.9,20.2-29.1,40.9-45.5,59.8h0Z"/>
  <path class="st0" d="M-292.8,372.3c1.3-.2,4.1,2.6,5,3.6-.7,1.6-4.5,5.8-6.1,5.7s-5.4-3.8-5.2-4.7l6.3-4.7h0Z"/>
  <path class="st0" d="M-286.4,377.8c1.6-.2,3.9,3.1,5.1,4.1-4,4.6-7.7,7.1-11.4.5l6.3-4.6Z"/>
  <path class="st0" d="M-220.8,408.4l-8.4-.5v-6.4c1.8.6,5.6-1.1,7-.3s.7,5.6,1.5,7.2h-.1Z"/>
  <path class="st0" d="M-306,371.7l8.7-3.5,3.2,2.7c-1.6,1.3-4.2,4.9-6.3,5.1s-6.2-3.6-5.6-4.3h0Z"/>
  <path class="st0" d="M-229.7,416.8c-2.9.7-5.5.5-8.3-.5v-6.4c4.8.4,8.9.9,8.3,6.9Z"/>
  <path class="st0" d="M-275,387.6c.9-.2,5.1,3.3,5,4.1-2.6,4.5-7,6.2-9.8.7l4.8-4.7h0Z"/>
  <path class="st0" d="M-280.8,414.3c-5.7.4-9.5,1.7-8.4-5.9l6.9-1,1.5,6.9Z"/>
  <path class="st0" d="M-353.8,374.3c1.5-.4,3.7,3.7,3.4,4.9-.6,2.1-4.4,3.6-6.4,2.9s-1.9-3.1-2.2-4.1c.1-.6,4.6-3.5,5.3-3.7h0Z"/>
  <path class="st0" d="M-286.7,387.6c4.8-1.3,5.6-7.2,10.4-1.7-2.4,6-6.4,7.1-10.4,1.7Z"/>
  <path class="st0" d="M-274.4,406l1,5.9c-1.7-.2-4.6,2.3-5.9,1.3s-2.4-5.8-2-6.2l6.9-.9h0Z"/>
  <path class="st0" d="M-355.6,383.6l6.2-2.5c1,0,3.3,3,3.2,3.6l-5.2,4.2-4.2-5.3h0Z"/>
  <path class="st0" d="M-355.3,374c-.7.8-3.9,2.4-5,2.1s-3.6-4.5-3.3-4.9l6.6-1.9c1.6.9,3.1,3,1.7,4.7h0Z"/>
  <polygon class="st0" points="-246.1 408.4 -246.1 414.3 -254 412.3 -252 407.1 -246.1 408.4"/>
  <path class="st0" d="M-220.3,408.4v-7.4c2.5,0,7.2,2.3,7,5.2s-5.5,1.9-7,2.2h0Z"/>
  <path class="st0" d="M-230.3,402.1c.5.6.9,5.6.6,5.8l-6.2-1-.2-4.9c1.4-.4,4.8-1.1,5.8,0h0Z"/>
  <path class="st0" d="M-335.8,398.5c-.3-.3.7-4,1.1-4.6.9-1.6,5.1.2,6.8.2l-.5,4.4h-7.4Z"/>
  <path class="st0" d="M-312.5,393.5l-1,5.2c-1.9.9-3.9.8-6,.7v-5.5l6.9-.5h.1Z"/>
  <path class="st0" d="M-361.5,402.4l-.4-5.9,5.4-1.3c1.7,4.2-.3,7.7-5,7.2h0Z"/>
  <path class="st0" d="M-239.1,415.8l-5.9-1v-5.9l5.2,1c1.2,1.8.6,4,.7,6h0Z"/>
  <path class="st0" d="M-268.1,393.2l2.7,2.5c-2.5,4.9-4.4,6.6-8.3,1.6l5.7-4h-.1Z"/>
  <polygon class="st0" points="-320.4 399.5 -327.4 399 -326.8 394.6 -320.9 394.2 -320.4 399.5"/>
  <polygon class="st0" points="-351.1 394.5 -350.4 400 -355.6 401.4 -355.6 395 -351.1 394.5"/>
  <path class="st0" d="M-362.5,397v6l-4.8-.6c-1.9-4,.9-6.1,4.8-5.3h0Z"/>
  <path class="st0" d="M-237.2,406.9c-2.1,0-4.4.3-6.2-1l.3-4,5.5.2.5,4.7h0Z"/>
  <path class="st0" d="M-344.9,386.7l3.1,2.6c-5.6,5.6-12.5,1.4-3.1-2.6Z"/>
  <path class="st0" d="M-292.2,408.4l.5,3c-4.4-.5-7.8.4-11.4,3-.6-.6,4-4.2,4.6-4.6,1.9-1.1,4.1-1.6,6.3-1.4Z"/>
  <path class="st0" d="M-370.5,398.5v3c-4.1-.6-7,1.3-9.9,4,1.2-4.1,5.8-6.6,9.9-6.9h0Z"/>
  <path class="st0" d="M-244.1,405.9l-6.4-.7c1.3-2.8,3.5-4.7,6.4-2.4v3.2h0Z"/>
  <path class="st0" d="M-217.8,420.3c-2.9-3.4-10.5-1.3-9.4-6.9.7-.7,7.6,4.4,8.4,5.2s1.2.9,1,1.7h0Z"/>
  <path class="st0" d="M-312,398.5l.5-4.9c6.7-.7,5.4,5.3-.5,4.9Z"/>
  <path class="st0" d="M-202.5,408.4l-8.1-1.5-.8-3c.5-.5,8.6,2.5,8.9,4.5Z"/>
  <path class="st0" d="M-298.1,398.5c-2.2-1-4.6-.3-6.9-.5v-3.5c.4-.4,7.4,1.7,6.9,4Z"/>
  <path d="M-209.4,129.4c.4,1.4-1.7,1.4-2.7,1.5-4.9.3-9.2-1.4-12.9-4.5s-5.6-5.2-4.7-6.5c6.4,4.6,12,9.2,20.3,9.4h0Z"/>
  <path d="M-144.5,94.7c-.9,1.3-12.4.2-10.9-4,3.8-.3,8.4,1,10.9,4Z"/>
  <path d="M-189.7,78.4c9-1.8,11.5,11,3.7,12.7s-11.3-11.1-3.7-12.7Z"/>
</svg>